<svg version="1.1" id="Layer_1" xmlns="http://www.w3.org/2000/svg" xmlns:xlink="http://www.w3.org/1999/xlink" x="0px" y="0px"
	 width="100%" viewBox="0 0 1156 1111" enable-background="new 0 0 1156 1111" xml:space="preserve">
<path fill="none" opacity="1.000000" stroke="#000000" stroke-linecap="round" stroke-linejoin="round" stroke-width="25.000000"
	d="
M502.500000,547.000000 
	C500.430298,546.915100 498.483978,547.416504 496.486755,547.950439 
	C491.226746,549.356506 485.866364,548.647583 480.499084,548.598511 
	C456.001160,548.374207 431.499908,548.469360 407.000122,548.543823 
	C404.332489,548.551941 401.577148,548.846924 399.017761,549.563477 
	C392.795837,551.305481 392.978821,551.283752 389.444733,546.037231 
	C385.832214,540.674194 385.112244,534.434509 383.574615,528.480713 
	C379.845093,514.039978 376.501434,499.499664 372.999237,485.000183 
	C371.670502,479.499084 370.323822,474.002289 369.002502,468.499390 
	C367.497040,462.229797 366.230804,455.955353 367.950867,449.486938 
	C368.146851,448.750031 367.954742,447.551514 367.456665,447.042419 
	C360.362030,439.790924 359.474762,430.027283 357.085876,420.977325 
	C353.104340,405.893799 349.625366,390.676483 346.016083,375.496185 
	C343.985901,366.957275 340.796112,358.515961 343.462799,349.489014 
	C343.721741,348.612457 343.326447,347.817047 342.560333,346.946869 
	C337.053406,340.692261 335.394806,332.756531 333.534637,324.991699 
	C329.334198,307.457886 325.097229,289.938019 320.580994,272.479034 
	C315.560486,253.070587 311.189575,233.494476 306.488953,214.002670 
	C304.555756,205.986557 302.381134,198.027298 300.535126,189.991928 
	C298.857117,182.687881 293.709686,178.096024 285.499725,178.061111 
	C251.333679,177.915802 217.162735,177.717072 183.002670,178.191757 
	C174.059998,178.316025 166.124039,183.812042 162.026718,195.009781 
	C158.405746,204.905792 161.505508,213.211731 168.491165,220.508469 
	C173.694061,225.943054 180.256607,227.943039 187.500107,227.973068 
	C206.666458,228.052536 225.836044,227.803421 244.999054,228.068344 
	C258.017273,228.248306 258.179260,229.400436 261.389832,241.529160 
	C266.829865,262.080261 271.123108,282.919769 276.393188,303.527313 
	C280.749146,320.560303 283.988800,337.875549 288.048737,354.988434 
	C292.331390,373.040009 297.122620,390.970490 301.464783,409.008484 
	C305.627869,426.302551 309.471100,443.673370 313.506378,460.998505 
	C320.650330,491.670471 327.716553,522.361206 335.034912,552.991638 
	C341.535187,580.198120 348.732513,607.243530 354.869904,634.529236 
	C359.528961,655.242554 364.166138,675.960144 369.638611,696.463013 
	C371.966370,705.184082 373.353943,706.576477 384.001495,706.958374 
	C390.326691,707.185303 396.666656,707.000000 403.000000,707.000000 
	C404.666656,707.000000 406.334198,706.965149 407.999847,707.005859 
	C416.840942,707.221863 424.949066,701.944946 434.689117,706.051453 
	C442.572205,709.375061 452.167145,706.819702 461.000519,706.968262 
	C469.664734,707.113953 478.333344,707.000000 487.000000,707.000000 
	C495.833344,707.000000 504.666656,707.000000 513.500000,707.000000 
	C522.333313,707.000000 531.166687,707.000000 540.000000,707.000000 
	C548.833313,707.000000 557.666687,707.000000 566.500000,707.000000 
	C575.166687,707.000000 583.833313,707.000000 592.500000,707.000000 
	C601.333313,707.000000 610.166687,707.000000 619.000000,707.000000 
	C627.833313,707.000000 636.666687,707.000000 645.500000,707.000000 
	C654.333313,707.000000 663.166687,707.000000 672.000000,707.000000 
	C680.666687,707.000000 689.333313,707.000000 698.000000,707.000000 
	C706.833313,707.000000 715.666687,707.000000 724.500000,707.000000 
	C733.333313,707.000000 742.166687,707.000000 751.000000,707.000000 
	C759.833313,707.000000 768.666687,707.000000 777.500000,707.000000 
	C786.166687,707.000000 794.833313,707.000000 803.500000,707.000000 
	C812.333313,707.000000 821.166687,707.000000 830.000000,707.000000 
	C838.833313,707.000000 847.666748,707.012695 856.499939,706.988708 
	C858.166870,706.984131 859.833313,706.833313 861.500000,706.750000 
"/>
<path fill="none" opacity="1.000000" stroke="#000000" stroke-linecap="round" stroke-linejoin="round" stroke-width="24.000000"
	d="
M805.500000,905.500000 
	C811.489990,904.594421 817.560852,904.567200 823.516174,903.064026 
	C846.591614,897.239563 863.376038,883.517273 873.905640,862.452820 
	C882.510986,845.237976 883.781921,826.681702 878.268799,808.570374 
	C869.948975,781.238953 851.164124,763.025940 823.435547,756.264404 
	C795.796753,749.524719 770.962585,757.186890 751.137268,777.633118 
	C735.604797,793.652100 727.960205,813.693542 730.260803,835.973083 
	C732.669739,859.301147 743.516113,878.480896 763.444458,892.081360 
	C775.188354,900.096191 787.941772,904.288147 801.999207,905.014954 
	C803.005127,905.066956 804.000000,905.333374 805.000000,905.500061 
"/>
<path fill="none" opacity="1.000000" stroke="#000000" stroke-linecap="round" stroke-linejoin="round" stroke-width="24.000000"
	d="
M416.000000,905.500000 
	C422.175781,904.734192 428.418182,904.607483 434.507355,903.028381 
	C456.915466,897.217163 473.435303,883.771179 483.850952,863.423706 
	C491.527557,848.427002 493.841827,832.549011 490.205139,815.456360 
	C483.540527,784.132263 464.551270,764.995544 434.470520,756.605652 
	C397.616608,746.326599 359.497650,768.033386 345.936462,802.474976 
	C334.485138,831.558105 343.544189,867.081909 366.872742,886.651672 
	C380.608307,898.174133 395.912231,904.077271 413.499115,905.016663 
	C414.172760,905.052673 414.833313,905.333374 415.500000,905.500061 
"/>
<path fill="none" opacity="1.000000" stroke="#000000" stroke-linecap="round" stroke-linejoin="round" stroke-width="25.000000"
	d="
M777.500000,547.000000 
	C784.177002,547.563171 790.664612,549.412659 797.503601,549.072205 
	C823.488586,547.778137 849.501099,548.816223 875.499634,548.473755 
	C878.402100,548.435608 881.249634,548.748047 883.988281,549.540527 
	C889.847351,551.236145 890.216858,552.103210 890.541626,558.497864 
	C890.912231,565.793213 888.341858,572.574463 886.831299,579.463013 
	C883.006104,596.907776 878.442200,614.194885 873.958984,631.489380 
	C871.276367,641.837769 866.923340,644.695557 856.502136,645.060547 
	C831.334900,645.941895 806.164673,645.155090 781.001038,645.563843 
	C775.445129,645.654053 770.539490,642.470459 765.493713,642.389404 
	C760.652954,642.311584 755.882751,645.584290 750.499756,645.562866 
	C718.500244,645.435608 686.499878,645.457458 654.500122,645.542908 
	C649.307373,645.556763 644.611877,642.457520 640.000000,642.457520 
	C635.388123,642.457520 630.692688,645.556946 625.499878,645.542908 
	C593.833435,645.457031 562.166443,645.434998 530.500244,645.562927 
	C525.117249,645.584656 520.390259,642.445923 515.494080,642.367432 
	C510.798859,642.292175 506.213989,645.599487 500.999542,645.555054 
	C483.834106,645.408813 466.657349,645.842346 449.503387,645.375366 
	C438.716675,645.081726 428.019226,644.474182 417.500000,647.500000 
"/>
<path fill="none" opacity="1.000000" stroke="#000000" stroke-linecap="round" stroke-linejoin="round" stroke-width="25.000000"
	d="
M640.000000,641.500000 
	C640.000000,544.333313 640.000000,447.166656 640.000000,349.900818 
	C634.965088,346.748077 629.396484,345.949432 623.499939,345.959930 
	C581.333374,346.034912 539.166504,346.056000 497.000183,345.936798 
	C490.994568,345.919830 485.470795,349.593414 480.040680,349.074463 
	C474.629150,348.557251 469.337524,345.922974 463.499786,345.943512 
	C430.333557,346.060181 397.166504,346.054596 364.000122,345.954895 
	C357.186951,345.934418 350.482849,346.196228 344.000000,348.500000 
"/>
<path fill="none" opacity="1.000000" stroke="#000000" stroke-linecap="round" stroke-linejoin="round" stroke-width="25.000000"
	d="
M938.500000,359.500000 
	C936.135925,348.836426 932.564087,346.000000 921.500000,346.000000 
	C885.000000,346.000000 848.499878,346.042938 812.000122,345.956024 
	C806.182434,345.942169 800.758728,349.392029 795.532227,349.032074 
	C790.342163,348.674652 785.121460,345.974915 779.500000,345.980042 
	C738.666687,346.017212 697.833252,346.036987 657.000061,345.958771 
	C651.101440,345.947479 645.611877,347.065765 640.500000,350.000000 
"/>
<path fill="none" opacity="1.000000" stroke="#000000" stroke-linecap="round" stroke-linejoin="round" stroke-width="25.000000"
	d="
M784.500000,446.500031 
	C776.500000,446.166687 768.500916,445.573853 760.499817,445.545715 
	C728.833557,445.434418 697.166687,445.500000 665.500000,445.500000 
	C616.833313,445.500000 568.165283,445.687286 519.501282,445.325745 
	C510.838684,445.261414 502.403656,445.604950 494.000000,447.500000 
"/>
<path fill="none" opacity="1.000000" stroke="#000000" stroke-linecap="round" stroke-linejoin="round" stroke-width="25.000000"
	d="
M796.000000,350.000000 
	C796.216309,364.445892 793.793579,378.678406 792.465393,392.996796 
	C791.088379,407.841278 788.227539,422.536652 787.986877,437.499786 
	C787.938049,440.538757 788.255188,443.732635 785.499634,445.999542 
	C784.458191,446.856293 785.031189,448.013214 785.031860,448.999969 
	C785.043518,465.674011 781.830444,482.020721 780.271729,498.525665 
	C779.503174,506.663971 778.418274,514.809631 777.791443,522.984009 
	C777.240295,530.170654 777.194275,537.325806 776.972412,544.499146 
	C776.859863,548.138489 773.646057,550.819214 770.017151,549.929993 
	C763.227173,548.266174 756.368408,548.504150 749.500000,548.502808 
	C717.333313,548.496399 685.166687,548.500000 653.000000,548.500000 
"/>
<path fill="none" opacity="1.000000" stroke="#000000" stroke-linecap="round" stroke-linejoin="round" stroke-width="25.000000"
	d="
M626.500000,548.500000 
	C592.833313,548.500000 559.166626,548.534790 525.500061,548.461304 
	C520.623169,548.450684 515.800903,548.798523 511.003296,549.521851 
	C505.097443,550.412231 502.881653,548.793579 503.034058,543.000916 
	C503.296539,533.023438 501.234985,523.310425 500.222595,513.477112 
	C499.156555,503.122498 497.361511,492.872131 496.442413,482.505096 
	C495.730896,474.479523 494.499969,466.500000 493.499969,458.500000 
"/>
<path fill="none" opacity="1.000000" stroke="#000000" stroke-linecap="round" stroke-linejoin="round" stroke-width="25.000000"
	d="
M489.500000,432.500000 
	C488.837067,422.606903 487.382263,412.810638 486.043091,402.994110 
	C484.523224,391.852905 483.428680,380.654114 481.962921,369.504883 
	C481.132324,363.186859 480.185608,356.897614 480.500000,350.500000 
"/>
<path fill="none" opacity="1.000000" stroke="#000000" stroke-linecap="round" stroke-linejoin="round" stroke-width="25.000000"
	d="
M788.000000,444.000000 
	C794.302185,444.894318 800.600342,445.572723 807.000183,445.544708 
	C831.999695,445.435211 857.005249,445.797791 881.997559,445.359589 
	C892.619812,445.173309 903.111633,445.074829 913.500000,447.500000 
"/>
<path fill="none" opacity="1.000000" stroke="#000000" stroke-linecap="round" stroke-linejoin="round" stroke-width="25.000000"
	d="
M489.500000,444.000000 
	C484.351807,444.690948 479.236755,445.542023 473.999939,445.529785 
	C446.666748,445.465912 419.330994,445.698547 392.001434,445.376984 
	C383.975006,445.282532 376.061462,444.611115 368.500000,448.000000 
"/>
<path fill="none" opacity="1.000000" stroke="#000000" stroke-linecap="round" stroke-linejoin="round" stroke-width="24.000000"
	d="
M940.000000,359.500000 
	C938.084473,358.917786 938.151672,360.966309 938.104980,361.509033 
	C937.219543,371.805237 933.825989,381.535767 931.483643,391.496155 
	C928.383667,404.678497 925.034180,417.803894 922.094604,431.021057 
	C921.374268,434.259827 920.646912,437.934967 918.791382,440.068573 
	C914.656616,444.822937 914.079407,449.774994 914.965881,455.505280 
	C915.849548,461.217773 913.652283,466.592163 912.399597,471.976654 
	C908.507202,488.707123 903.935486,505.280731 900.123474,522.028137 
	C898.760254,528.017273 897.423096,534.026917 895.921814,539.980286 
	C894.835876,544.286682 892.416870,548.022888 889.000000,551.000000 
"/>
<path fill="none" opacity="1.000000" stroke="#000000" stroke-linecap="round" stroke-linejoin="round" stroke-width="24.000000"
	d="
M393.500000,551.500000 
	C391.868225,556.787537 391.894409,562.264404 393.098724,567.477173 
	C396.655884,582.874329 400.675842,598.164368 404.494568,613.501343 
	C405.695892,618.326050 407.066895,623.124817 407.942413,628.010315 
	C409.101257,634.476807 411.863220,640.171448 415.547363,645.467041 
	C416.442841,646.754150 417.521667,647.981384 416.956329,649.483582 
	C413.810181,657.843140 417.192657,665.668457 419.114868,673.471680 
	C421.475403,683.054321 423.751617,692.588806 424.000000,702.500000 
"/>
<path fill="none" opacity="1.000000" stroke="#000000" stroke-linecap="round" stroke-linejoin="round" stroke-width="25.000000"
	d="
M507.000000,551.000000 
	C506.811859,562.108032 508.347717,573.024841 509.704651,584.036377 
	C511.099457,595.355103 512.572510,606.681702 514.084778,617.988647 
	C515.131897,625.817871 515.379761,633.642456 515.500000,641.500000 
"/>
<path fill="none" opacity="1.000000" stroke="#000000" stroke-linecap="round" stroke-linejoin="round" stroke-width="25.000000"
	d="
M773.000000,551.000000 
	C773.310364,563.439575 771.763367,575.695251 770.347473,588.039856 
	C769.401428,596.287415 768.352112,604.634949 767.739868,612.980896 
	C767.043457,622.476746 765.589966,631.934814 765.500000,641.500000 
"/>
<path fill="none" opacity="1.000000" stroke="#000000" stroke-linecap="round" stroke-linejoin="round" stroke-width="5.000000"
	d="
M793.500000,537.500000 
	C793.500000,541.166687 793.500000,544.833313 793.500000,548.500000 
"/>
</svg>