<svg version="1.1" id="Layer_1" xmlns="http://www.w3.org/2000/svg" xmlns:xlink="http://www.w3.org/1999/xlink" x="0px" y="0px"
	 width="100%" viewBox="0 0 1024 1008" enable-background="new 0 0 1024 1008" xml:space="preserve">
<path fill="#000000" opacity="1.000000" stroke="none" 
	d="
M477.083618,733.791382 
	C467.096832,715.718506 457.571533,697.805176 447.492676,680.208862 
	C424.014221,639.218506 401.120300,597.885864 376.677795,557.456848 
	C366.956085,541.376648 356.190491,525.930237 346.332184,509.929077 
	C335.459808,492.281982 327.726959,473.171936 322.223206,453.232574 
	C316.343323,431.930450 315.806458,409.906036 318.297974,388.339294 
	C322.937469,348.179230 339.289124,312.654968 366.525146,282.542236 
	C386.709961,260.225403 411.070068,243.652390 439.030151,232.627625 
	C449.787476,228.385971 460.946808,225.342575 472.488556,223.391968 
	C485.639313,221.169449 498.716034,219.399582 512.067444,219.750122 
	C525.196533,220.094818 537.964294,222.477783 550.786804,225.224792 
	C576.278503,230.685883 599.082397,241.765808 620.027100,256.872955 
	C637.290344,269.324677 651.981140,284.395508 664.070740,301.993195 
	C672.579773,314.378815 679.723877,327.456268 685.126953,341.473236 
	C694.703064,366.316284 698.396118,392.002197 697.507690,418.635773 
	C696.614014,445.427002 689.006348,470.171936 677.631348,494.094849 
	C669.233521,511.756409 657.693481,527.489014 647.411499,543.987976 
	C636.765259,561.071411 626.545715,578.396973 616.335327,595.740417 
	C601.161133,621.515625 586.324280,647.478638 571.712524,673.572327 
	C557.580444,698.809570 543.554077,724.106201 529.485535,749.379028 
	C526.652527,754.468384 523.734131,759.514038 521.044373,764.678406 
	C518.169006,770.198975 513.618713,773.512024 507.573608,773.520935 
	C501.507294,773.529846 497.202148,770.139038 494.266357,764.568604 
	C488.846741,754.285339 482.976288,744.239685 477.083618,733.791382 
M618.826294,534.343445 
	C629.562988,516.196045 642.533875,499.436798 651.631226,480.251343 
	C662.403625,457.533295 669.055237,433.947174 668.953552,408.652283 
	C668.911987,398.302338 667.195435,388.170746 665.298218,378.043549 
	C661.957336,360.210144 655.398499,343.538055 646.032410,328.140045 
	C628.161682,298.760284 603.479980,276.933075 571.861023,263.024200 
	C556.215454,256.141815 539.912048,251.524796 522.976746,250.366440 
	C498.590424,248.698425 474.641693,250.964081 451.382843,259.837830 
	C422.598907,270.819489 398.799591,288.263123 380.121674,312.475220 
	C361.812469,336.209381 351.162476,363.016785 347.653015,393.117767 
	C345.764099,409.319550 346.881317,424.816559 349.872711,440.542877 
	C353.615753,460.220947 361.635284,478.204376 371.748688,495.237915 
	C385.411774,518.250000 400.247559,540.536255 413.837830,563.621155 
	C430.455139,591.847900 446.956390,620.136658 463.082031,648.642212 
	C477.079803,673.386292 490.699402,698.344238 504.540680,723.177246 
	C505.295746,724.531921 505.823029,726.341675 508.687225,726.668152 
	C544.081726,662.304565 580.197754,598.020996 618.826294,534.343445 
z"/>
<path fill="#000000" opacity="1.000000" stroke="none" 
	d="
M658.511719,748.571289 
	C642.564209,742.070435 626.294678,738.079285 609.861755,734.715759 
	C602.218750,733.151367 594.518372,731.840393 586.808777,730.641296 
	C583.659241,730.151428 582.459595,728.636902 582.829712,725.605835 
	C583.655579,718.842346 584.432007,712.072693 585.309448,705.315979 
	C585.612122,702.985168 587.130066,701.624390 589.462769,701.945435 
	C597.330750,703.028137 605.213867,704.074158 613.017944,705.527588 
	C621.128479,707.038086 629.222595,708.741882 637.203796,710.821960 
	C663.079834,717.566040 688.336060,725.685364 708.369751,744.746033 
	C724.411438,760.008667 724.609680,784.060669 708.943848,800.056274 
	C695.998596,813.274109 679.794739,820.814514 662.792725,826.978210 
	C641.175293,834.815002 618.771973,839.719971 596.095276,842.865723 
	C576.676514,845.559387 557.123535,847.420776 537.469177,848.259155 
	C523.979675,848.834595 510.500732,849.492920 497.023529,849.060242 
	C473.739777,848.312622 450.508301,846.865845 427.353607,843.945984 
	C408.354797,841.550049 389.605804,838.070129 371.190704,832.992004 
	C350.950989,827.410706 331.249298,820.345093 314.330353,807.342957 
	C304.725342,799.961609 297.235565,790.925964 295.267242,778.563721 
	C293.219299,765.701538 297.350159,754.588318 306.354523,745.345520 
	C318.867279,732.501404 334.734222,725.222351 351.134430,718.943237 
	C364.466614,713.838806 378.358246,710.530945 392.194122,707.258484 
	C403.120209,704.674255 414.372070,703.458252 425.489349,701.698181 
	C428.101044,701.284668 429.695068,702.641846 430.011810,705.194824 
	C430.871613,712.125183 431.589905,719.073059 432.422211,726.006958 
	C432.730988,728.579102 431.996063,729.967651 429.166992,730.479004 
	C414.939667,733.050232 400.657379,735.258728 386.613953,738.890686 
	C368.659180,743.534302 351.267059,749.394043 335.363434,759.109619 
	C331.939117,761.201538 328.888062,763.825867 326.449738,767.040710 
	C322.985992,771.607422 323.227325,775.157654 327.283234,779.524536 
	C333.780548,786.519958 342.063751,790.908936 350.650879,794.547974 
	C370.314178,802.880737 390.850342,808.064209 411.874756,811.925781 
	C451.579865,819.218750 491.596893,820.669983 531.767700,819.668213 
	C551.393982,819.178955 570.911926,816.958618 590.374084,814.176086 
	C609.839355,811.393005 628.977600,807.396423 647.613220,801.119385 
	C659.460327,797.128906 671.013428,792.523621 681.361877,785.262146 
	C694.183899,776.264771 694.609497,770.978699 682.589539,761.202454 
	C675.556763,755.482544 667.270325,751.944763 658.511719,748.571289 
z"/>
<path fill="#000000" opacity="1.000000" stroke="none" 
	d="
M566.679199,509.812134 
	C557.136475,515.431335 547.336365,519.619751 536.975281,522.180542 
	C530.082092,523.884277 523.052246,525.029907 515.850647,525.362488 
	C493.456573,526.397034 472.177673,522.884888 452.371338,511.812531 
	C432.073334,500.465363 416.249268,484.801331 405.405609,464.200317 
	C395.685333,445.733612 390.466278,425.931000 392.030853,405.195862 
	C394.800354,368.491699 410.554565,338.429932 440.835693,316.545197 
	C455.833069,305.706268 472.554779,298.654053 490.660889,296.299957 
	C506.402313,294.253296 522.272705,294.686523 538.020325,299.291534 
	C561.098083,306.040009 580.366455,318.097565 595.896362,336.302460 
	C606.622375,348.876068 614.519897,363.174072 618.729858,379.042786 
	C623.845581,398.325623 625.022949,417.847412 619.910706,437.629883 
	C612.231506,467.346161 595.805481,490.489014 570.224426,507.270233 
	C569.111938,508.000061 568.064026,508.828369 566.679199,509.812134 
M566.017700,473.503754 
	C577.005371,463.374329 584.944519,451.287506 589.495850,437.012909 
	C596.601929,414.725769 595.448975,392.780457 584.598755,372.145203 
	C570.940979,346.170563 549.534058,330.465546 520.026428,325.602570 
	C504.640381,323.066895 490.163086,325.058960 476.138367,330.637512 
	C446.607666,342.383942 428.869934,364.820648 422.771667,395.438751 
	C420.470306,406.993469 420.738953,419.535095 424.002502,431.566895 
	C428.378693,447.700775 436.019867,462.013947 448.391357,473.071564 
	C469.540283,491.974518 494.020874,500.785797 522.776917,495.152374 
	C539.040894,491.966248 553.317688,485.207672 566.017700,473.503754 
z"/>
</svg>