<svg  style="fill: red" version="1.1" id="Layer_1" xmlns="http://www.w3.org/2000/svg" xmlns:xlink="http://www.w3.org/1999/xlink" x="0px" y="0px"
	 width="100%" viewBox="0 0 976 1024" enable-background="new 0 0 976 1024" xml:space="preserve">
<path fill="#000000" opacity="1.000000" stroke="none" 
	d="
M435.394012,52.504021 
	C515.002625,66.957336 582.212402,103.590240 637.345032,162.035889 
	C671.971069,198.742645 697.412964,241.223373 714.304504,288.857849 
	C730.803345,335.384766 736.919250,383.374634 733.891357,432.406158 
	C731.083801,477.869202 719.832642,521.366638 700.067261,562.587036 
	C686.151489,591.608215 668.745422,618.305115 647.884705,642.752563 
	C645.120728,645.991760 645.603577,647.817017 648.370056,650.570007 
	C688.645142,690.648071 728.855713,730.791016 769.029846,770.970276 
	C807.081055,809.026428 845.068359,847.146362 883.090027,885.231995 
	C910.516174,912.704224 937.930420,940.188416 965.393982,967.623230 
	C978.526550,980.742188 975.076477,1001.437866 958.245667,1007.841309 
	C948.565918,1011.524048 939.572021,1009.433350 932.089294,1001.921875 
	C915.980225,985.750854 899.861938,969.588989 883.724243,953.446594 
	C832.955566,902.663147 782.168152,851.898499 731.403442,801.111084 
	C692.534729,762.224976 653.657104,723.347534 614.896179,684.354187 
	C611.871094,681.310974 610.001404,681.202698 606.697144,684.006836 
	C557.522461,725.737000 501.486542,753.581177 437.809967,764.499023 
	C341.571594,780.999939 252.255112,762.635315 171.074142,707.917847 
	C112.643555,668.534424 69.720238,615.929382 41.596748,551.386963 
	C24.055759,511.131073 14.604922,468.966919 12.592134,425.022888 
	C11.110448,392.674072 13.866371,360.777008 20.879305,329.264099 
	C32.646542,276.387482 55.457012,228.578644 88.851135,186.001801 
	C121.590294,144.260010 161.632675,111.113052 208.829407,86.727142 
	C243.308929,68.912041 279.780884,56.907398 318.084808,51.153061 
	C357.022766,45.303482 396.079895,45.508469 435.394012,52.504021 
M130.163300,210.643005 
	C115.895805,228.141479 103.567558,246.950928 93.465874,267.105896 
	C69.750191,314.423615 58.251423,364.475220 59.845257,417.575378 
	C60.731907,447.115021 65.630760,475.821899 74.503700,503.922729 
	C89.421532,551.167725 114.355087,592.482117 148.935287,627.850342 
	C194.993515,674.958130 250.472672,704.910095 315.192719,717.467957 
	C349.660614,724.155945 384.305206,724.737122 419.054779,719.626160 
	C448.752380,715.258301 477.271271,706.847229 504.413727,694.111755 
	C559.305298,668.356079 603.390442,630.079651 636.524658,579.208374 
	C658.717529,545.135376 673.661316,508.110229 681.421204,468.287170 
	C686.889893,440.222534 688.288513,411.848450 685.985046,383.269684 
	C683.463013,351.979126 676.600403,321.711182 664.938904,292.635406 
	C646.463135,246.569611 618.695129,206.917953 581.557922,173.863495 
	C541.388000,138.109741 495.055511,114.328659 442.736328,102.200294 
	C413.157562,95.343506 383.128967,93.604233 352.878296,95.264603 
	C336.881134,96.142632 321.037292,98.541748 305.441071,102.014046 
	C281.146118,107.423004 257.773956,115.701927 235.436462,126.771492 
	C194.532761,147.041718 159.601074,174.829605 130.163300,210.643005 
z"/>
</svg>